<?xml version="1.0" encoding="UTF-8"?>
<mxfile host="app.diagrams.net" modified="2023-10-20T21:34:44.852Z" agent="Mozilla/5.0 (Windows NT 10.0; Win64; x64) AppleWebKit/537.36 (KHTML, like Gecko) Chrome/116.0.0.0 Safari/537.36 OPR/102.0.0.0" etag="-RgNN_q4MKm4fj4JjFTH" version="22.0.5" type="google">
  <diagram id="C5RBs43oDa-KdzZeNtuy" name="Page-1">
    <mxGraphModel dx="9174" dy="6136" grid="1" gridSize="10" guides="1" tooltips="1" connect="1" arrows="1" fold="1" page="1" pageScale="1" pageWidth="827" pageHeight="1169" math="0" shadow="0">
      <root>
        <mxCell id="WIyWlLk6GJQsqaUBKTNV-0" />
        <mxCell id="WIyWlLk6GJQsqaUBKTNV-1" parent="WIyWlLk6GJQsqaUBKTNV-0" />
        <mxCell id="cNR-y7nXcuCfaeGXSN0F-13" value="&lt;h2 style=&quot;line-height: 120%;&quot;&gt;Client.ui.MainMenu&lt;/h2&gt;" style="shape=folder;fontStyle=1;spacingTop=10;tabWidth=40;tabHeight=14;tabPosition=left;html=1;whiteSpace=wrap;align=left;" parent="WIyWlLk6GJQsqaUBKTNV-1" vertex="1">
          <mxGeometry x="-800" y="390" width="1160" height="1040" as="geometry" />
        </mxCell>
        <mxCell id="cNR-y7nXcuCfaeGXSN0F-12" value="&lt;h2 style=&quot;line-height: 120%;&quot;&gt;Client.ui.Board&lt;/h2&gt;" style="shape=folder;fontStyle=1;spacingTop=10;tabWidth=40;tabHeight=14;tabPosition=left;html=1;whiteSpace=wrap;align=left;" parent="WIyWlLk6GJQsqaUBKTNV-1" vertex="1">
          <mxGeometry x="-2020" y="420" width="1140" height="830" as="geometry" />
        </mxCell>
        <mxCell id="cNR-y7nXcuCfaeGXSN0F-2" value="&lt;h2 style=&quot;line-height: 120%;&quot;&gt;Client.data&lt;/h2&gt;" style="shape=folder;fontStyle=1;spacingTop=10;tabWidth=40;tabHeight=14;tabPosition=left;html=1;whiteSpace=wrap;align=left;" parent="WIyWlLk6GJQsqaUBKTNV-1" vertex="1">
          <mxGeometry x="90" y="-470" width="420" height="260" as="geometry" />
        </mxCell>
        <mxCell id="ngE_6K4PF9mm5ZxgfQsE-18" style="rounded=0;orthogonalLoop=1;jettySize=auto;html=1;entryX=0.5;entryY=1;entryDx=0;entryDy=0;endArrow=classic;endFill=1;dashed=1;" parent="WIyWlLk6GJQsqaUBKTNV-1" edge="1">
          <mxGeometry relative="1" as="geometry">
            <mxPoint x="-1170" y="710" as="targetPoint" />
          </mxGeometry>
        </mxCell>
        <mxCell id="ngE_6K4PF9mm5ZxgfQsE-32" value="AvatarsJPanel " style="swimlane;fontStyle=0;align=center;verticalAlign=top;childLayout=stackLayout;horizontal=1;startSize=40;horizontalStack=0;resizeParent=1;resizeLast=0;collapsible=1;marginBottom=0;rounded=0;shadow=0;strokeWidth=1;" parent="WIyWlLk6GJQsqaUBKTNV-1" vertex="1">
          <mxGeometry x="-780" y="490" width="175" height="126" as="geometry">
            <mxRectangle x="550" y="140" width="160" height="26" as="alternateBounds" />
          </mxGeometry>
        </mxCell>
        <mxCell id="ngE_6K4PF9mm5ZxgfQsE-33" value="-V: view" style="text;align=left;verticalAlign=top;spacingLeft=4;spacingRight=4;overflow=hidden;rotatable=0;points=[[0,0.5],[1,0.5]];portConstraint=eastwest;" parent="ngE_6K4PF9mm5ZxgfQsE-32" vertex="1">
          <mxGeometry y="40" width="175" height="30" as="geometry" />
        </mxCell>
        <mxCell id="ngE_6K4PF9mm5ZxgfQsE-34" value="" style="line;html=1;strokeWidth=1;align=left;verticalAlign=middle;spacingTop=-1;spacingLeft=3;spacingRight=3;rotatable=0;labelPosition=right;points=[];portConstraint=eastwest;" parent="ngE_6K4PF9mm5ZxgfQsE-32" vertex="1">
          <mxGeometry y="70" width="175" height="8" as="geometry" />
        </mxCell>
        <mxCell id="ngE_6K4PF9mm5ZxgfQsE-35" value="+ AvatarsJPanel()&#xa;+V setView(V view)&#xa;-void createAvatar()" style="text;align=left;verticalAlign=top;spacingLeft=4;spacingRight=4;overflow=hidden;rotatable=0;points=[[0,0.5],[1,0.5]];portConstraint=eastwest;" parent="ngE_6K4PF9mm5ZxgfQsE-32" vertex="1">
          <mxGeometry y="78" width="175" height="48" as="geometry" />
        </mxCell>
        <mxCell id="ngE_6K4PF9mm5ZxgfQsE-46" value="ConfigurationJPanel " style="swimlane;fontStyle=0;align=center;verticalAlign=top;childLayout=stackLayout;horizontal=1;startSize=40;horizontalStack=0;resizeParent=1;resizeLast=0;collapsible=1;marginBottom=0;rounded=0;shadow=0;strokeWidth=1;" parent="WIyWlLk6GJQsqaUBKTNV-1" vertex="1">
          <mxGeometry x="-575" y="470" width="210" height="190" as="geometry">
            <mxRectangle x="550" y="140" width="160" height="26" as="alternateBounds" />
          </mxGeometry>
        </mxCell>
        <mxCell id="ngE_6K4PF9mm5ZxgfQsE-47" value="-lastButtonClicked:JButton&#xa;- border: MatteBorder&#xa;-borderNull: MatteBorder&#xa;-view :V" style="text;align=left;verticalAlign=top;spacingLeft=4;spacingRight=4;overflow=hidden;rotatable=0;points=[[0,0.5],[1,0.5]];portConstraint=eastwest;" parent="ngE_6K4PF9mm5ZxgfQsE-46" vertex="1">
          <mxGeometry y="40" width="210" height="70" as="geometry" />
        </mxCell>
        <mxCell id="ngE_6K4PF9mm5ZxgfQsE-48" value="" style="line;html=1;strokeWidth=1;align=left;verticalAlign=middle;spacingTop=-1;spacingLeft=3;spacingRight=3;rotatable=0;labelPosition=right;points=[];portConstraint=eastwest;" parent="ngE_6K4PF9mm5ZxgfQsE-46" vertex="1">
          <mxGeometry y="110" width="210" height="8" as="geometry" />
        </mxCell>
        <mxCell id="ngE_6K4PF9mm5ZxgfQsE-49" value="+ ConfigurationJPanel()&#xa;- void removeBorder()&#xa;+V setView(V view)&#xa;-setTilesPerPlayer()" style="text;align=left;verticalAlign=top;spacingLeft=4;spacingRight=4;overflow=hidden;rotatable=0;points=[[0,0.5],[1,0.5]];portConstraint=eastwest;" parent="ngE_6K4PF9mm5ZxgfQsE-46" vertex="1">
          <mxGeometry y="118" width="210" height="72" as="geometry" />
        </mxCell>
        <mxCell id="ngE_6K4PF9mm5ZxgfQsE-58" value="LobbyJPanel " style="swimlane;fontStyle=0;align=center;verticalAlign=top;childLayout=stackLayout;horizontal=1;startSize=40;horizontalStack=0;resizeParent=1;resizeLast=0;collapsible=1;marginBottom=0;rounded=0;shadow=0;strokeWidth=1;" parent="WIyWlLk6GJQsqaUBKTNV-1" vertex="1">
          <mxGeometry x="-790" y="650" width="150" height="150" as="geometry">
            <mxRectangle x="550" y="140" width="160" height="26" as="alternateBounds" />
          </mxGeometry>
        </mxCell>
        <mxCell id="ngE_6K4PF9mm5ZxgfQsE-59" value="- view :V" style="text;align=left;verticalAlign=top;spacingLeft=4;spacingRight=4;overflow=hidden;rotatable=0;points=[[0,0.5],[1,0.5]];portConstraint=eastwest;" parent="ngE_6K4PF9mm5ZxgfQsE-58" vertex="1">
          <mxGeometry y="40" width="150" height="40" as="geometry" />
        </mxCell>
        <mxCell id="ngE_6K4PF9mm5ZxgfQsE-60" value="" style="line;html=1;strokeWidth=1;align=left;verticalAlign=middle;spacingTop=-1;spacingLeft=3;spacingRight=3;rotatable=0;labelPosition=right;points=[];portConstraint=eastwest;" parent="ngE_6K4PF9mm5ZxgfQsE-58" vertex="1">
          <mxGeometry y="80" width="150" height="8" as="geometry" />
        </mxCell>
        <mxCell id="ngE_6K4PF9mm5ZxgfQsE-61" value="+ LobbyJPanel()&#xa;+V setView(V view)" style="text;align=left;verticalAlign=top;spacingLeft=4;spacingRight=4;overflow=hidden;rotatable=0;points=[[0,0.5],[1,0.5]];portConstraint=eastwest;" parent="ngE_6K4PF9mm5ZxgfQsE-58" vertex="1">
          <mxGeometry y="88" width="150" height="62" as="geometry" />
        </mxCell>
        <mxCell id="cNR-y7nXcuCfaeGXSN0F-20" value="MainMenuJFrame" style="swimlane;fontStyle=0;align=center;verticalAlign=top;childLayout=stackLayout;horizontal=1;startSize=40;horizontalStack=0;resizeParent=1;resizeLast=0;collapsible=1;marginBottom=0;rounded=0;shadow=0;strokeWidth=1;" parent="WIyWlLk6GJQsqaUBKTNV-1" vertex="1">
          <mxGeometry x="-340" y="470" width="480" height="300" as="geometry">
            <mxRectangle x="550" y="140" width="160" height="26" as="alternateBounds" />
          </mxGeometry>
        </mxCell>
        <mxCell id="cNR-y7nXcuCfaeGXSN0F-21" value="-avatarPanel:AvatarsJPanel&#xa;-lobbyPanel: LobbyJPanel&#xa;-configurationPanel:ConfigurationJPanel&lt;MainMenuJFrame&gt;&#xa;-menuPanel : MenuJPanel&#xa;-panels: List&lt;JPanel&gt;&#xa;-final PANEL_START_X: int&#xa;-final PANEL_START_Y: int&#xa;-final FRAME_WIDTH: int&#xa;-final FRAME_HEIGHT: int&#xa;- final AbsoluteConstraints: CONSTRAINTS" style="text;align=left;verticalAlign=top;spacingLeft=4;spacingRight=4;overflow=hidden;rotatable=0;points=[[0,0.5],[1,0.5]];portConstraint=eastwest;" parent="cNR-y7nXcuCfaeGXSN0F-20" vertex="1">
          <mxGeometry y="40" width="480" height="170" as="geometry" />
        </mxCell>
        <mxCell id="cNR-y7nXcuCfaeGXSN0F-22" value="" style="line;html=1;strokeWidth=1;align=left;verticalAlign=middle;spacingTop=-1;spacingLeft=3;spacingRight=3;rotatable=0;labelPosition=right;points=[];portConstraint=eastwest;" parent="cNR-y7nXcuCfaeGXSN0F-20" vertex="1">
          <mxGeometry y="210" width="480" height="10" as="geometry" />
        </mxCell>
        <mxCell id="cNR-y7nXcuCfaeGXSN0F-23" value="+MainMenuJFrame()&#xa;+addPanel(JPanel panel):JPanel &#xa;+void displayLobbyPanel()&#xa;+void hidePanels()" style="text;align=left;verticalAlign=top;spacingLeft=4;spacingRight=4;overflow=hidden;rotatable=0;points=[[0,0.5],[1,0.5]];portConstraint=eastwest;" parent="cNR-y7nXcuCfaeGXSN0F-20" vertex="1">
          <mxGeometry y="220" width="480" height="80" as="geometry" />
        </mxCell>
        <mxCell id="cNR-y7nXcuCfaeGXSN0F-24" value="MainMenuPresenter " style="swimlane;fontStyle=0;align=center;verticalAlign=top;childLayout=stackLayout;horizontal=1;startSize=40;horizontalStack=0;resizeParent=1;resizeLast=0;collapsible=1;marginBottom=0;rounded=0;shadow=0;strokeWidth=1;" parent="WIyWlLk6GJQsqaUBKTNV-1" vertex="1">
          <mxGeometry x="-790" y="1220" width="390" height="180" as="geometry">
            <mxRectangle x="550" y="140" width="160" height="26" as="alternateBounds" />
          </mxGeometry>
        </mxCell>
        <mxCell id="cNR-y7nXcuCfaeGXSN0F-25" value="-view: MainMenuView&#xa;-boardPresenter:BoardPresenter" style="text;align=left;verticalAlign=top;spacingLeft=4;spacingRight=4;overflow=hidden;rotatable=0;points=[[0,0.5],[1,0.5]];portConstraint=eastwest;" parent="cNR-y7nXcuCfaeGXSN0F-24" vertex="1">
          <mxGeometry y="40" width="390" height="50" as="geometry" />
        </mxCell>
        <mxCell id="cNR-y7nXcuCfaeGXSN0F-26" value="" style="line;html=1;strokeWidth=1;align=left;verticalAlign=middle;spacingTop=-1;spacingLeft=3;spacingRight=3;rotatable=0;labelPosition=right;points=[];portConstraint=eastwest;" parent="cNR-y7nXcuCfaeGXSN0F-24" vertex="1">
          <mxGeometry y="90" width="390" height="8" as="geometry" />
        </mxCell>
        <mxCell id="cNR-y7nXcuCfaeGXSN0F-27" value="+MainMenuPresenter(MainMenuView view)&#xa;+setBoardPresenter(BoardPresenter boardPresenter): BoardPresenter&#xa;" style="text;align=left;verticalAlign=top;spacingLeft=4;spacingRight=4;overflow=hidden;rotatable=0;points=[[0,0.5],[1,0.5]];portConstraint=eastwest;" parent="cNR-y7nXcuCfaeGXSN0F-24" vertex="1">
          <mxGeometry y="98" width="390" height="72" as="geometry" />
        </mxCell>
        <mxCell id="cNR-y7nXcuCfaeGXSN0F-32" value="&lt;p style=&quot;margin:0px;margin-top:4px;text-align:center;&quot;&gt;&lt;i&gt;&amp;lt;&amp;lt;Interface&amp;gt;&amp;gt;&lt;/i&gt;&lt;br&gt;&lt;b&gt;MainMenuView&lt;/b&gt;&lt;br&gt;&lt;/p&gt;&lt;p style=&quot;margin:0px;margin-left:4px;&quot;&gt;&lt;br&gt;&lt;/p&gt;&lt;hr size=&quot;1&quot;&gt;&lt;p style=&quot;margin:0px;margin-left:4px;&quot;&gt;&amp;nbsp; &amp;nbsp; void displayConfigurationPanel();&lt;/p&gt;&lt;p style=&quot;margin:0px;margin-left:4px;&quot;&gt;&lt;br&gt;&lt;/p&gt;&lt;p style=&quot;margin:0px;margin-left:4px;&quot;&gt;&amp;nbsp; &amp;nbsp; void displayAvatarsPanel();&lt;/p&gt;&lt;p style=&quot;margin:0px;margin-left:4px;&quot;&gt;&lt;br&gt;&lt;/p&gt;&lt;p style=&quot;margin:0px;margin-left:4px;&quot;&gt;&amp;nbsp; &amp;nbsp; void displayLobbyPanel();&lt;/p&gt;&lt;p style=&quot;margin:0px;margin-left:4px;&quot;&gt;&lt;br&gt;&lt;/p&gt;&lt;p style=&quot;margin:0px;margin-left:4px;&quot;&gt;&amp;nbsp; &amp;nbsp; void displayMenuPanel();&lt;/p&gt;&lt;p style=&quot;margin:0px;margin-left:4px;&quot;&gt;&lt;br&gt;&lt;/p&gt;&lt;p style=&quot;margin:0px;margin-left:4px;&quot;&gt;&amp;nbsp; &amp;nbsp; void displayBoardView();&lt;/p&gt;&lt;p style=&quot;margin:0px;margin-left:4px;&quot;&gt;&lt;br&gt;&lt;/p&gt;&lt;p style=&quot;margin:0px;margin-left:4px;&quot;&gt;&amp;nbsp; &amp;nbsp; void setMenuPanel(MenuJPanel panel);&lt;/p&gt;&lt;p style=&quot;margin:0px;margin-left:4px;&quot;&gt;&lt;br&gt;&lt;/p&gt;&lt;p style=&quot;margin:0px;margin-left:4px;&quot;&gt;&amp;nbsp; &amp;nbsp; void setAvatarPanel(AvatarsJPanel panel);&lt;/p&gt;&lt;p style=&quot;margin:0px;margin-left:4px;&quot;&gt;&lt;br&gt;&lt;/p&gt;&lt;p style=&quot;margin:0px;margin-left:4px;&quot;&gt;&amp;nbsp; &amp;nbsp; void setConfigurationPanel(ConfigurationJPanel panel);&lt;/p&gt;&lt;p style=&quot;margin:0px;margin-left:4px;&quot;&gt;&lt;br&gt;&lt;/p&gt;&lt;p style=&quot;margin:0px;margin-left:4px;&quot;&gt;&amp;nbsp; &amp;nbsp; void setLobbyPanel(LobbyJPanel panel);&lt;/p&gt;&lt;p style=&quot;margin:0px;margin-left:4px;&quot;&gt;&lt;br&gt;&lt;/p&gt;&lt;p style=&quot;margin:0px;margin-left:4px;&quot;&gt;&amp;nbsp; &amp;nbsp; void setListener(MainMenuViewListener listener);&lt;/p&gt;&lt;p style=&quot;margin:0px;margin-left:4px;&quot;&gt;&lt;br&gt;&lt;/p&gt;&lt;p style=&quot;margin:0px;margin-left:4px;&quot;&gt;&amp;nbsp; &amp;nbsp; void setTilesPerPlayer(int cant);&lt;/p&gt;&lt;p style=&quot;margin:0px;margin-left:4px;&quot;&gt;&lt;br&gt;&lt;/p&gt;&lt;p style=&quot;margin:0px;margin-left:4px;&quot;&gt;&amp;nbsp; &amp;nbsp; void createAvatar(String name, String Image);&lt;/p&gt;&lt;p style=&quot;margin:0px;margin-left:4px;&quot;&gt;&lt;br&gt;&lt;/p&gt;&lt;p style=&quot;margin:0px;margin-left:4px;&quot;&gt;&amp;nbsp; &amp;nbsp; Avatar getAvatar();&lt;/p&gt;&lt;p style=&quot;margin:0px;margin-left:4px;&quot;&gt;&lt;br&gt;&lt;/p&gt;&lt;p style=&quot;margin:0px;margin-left:4px;&quot;&gt;&amp;nbsp; &amp;nbsp; void createPlayer(Avatar avatar);&lt;/p&gt;&lt;p style=&quot;margin:0px;margin-left:4px;&quot;&gt;&lt;br&gt;&lt;/p&gt;&lt;p style=&quot;margin:0px;margin-left:4px;&quot;&gt;&amp;nbsp; &amp;nbsp; void removePlayer(Player player);&lt;/p&gt;&lt;p style=&quot;margin:0px;margin-left:4px;&quot;&gt;&lt;br&gt;&lt;/p&gt;&lt;p style=&quot;margin:0px;margin-left:4px;&quot;&gt;&amp;nbsp; &amp;nbsp; void createDominoGame();&lt;/p&gt;&lt;p style=&quot;margin:0px;margin-left:4px;&quot;&gt;&lt;br&gt;&lt;/p&gt;&lt;p style=&quot;margin:0px;margin-left:4px;&quot;&gt;&amp;nbsp; &amp;nbsp; void createTurnController();&lt;/p&gt;&lt;p style=&quot;margin:0px;margin-left:4px;&quot;&gt;&lt;br&gt;&lt;/p&gt;&lt;p style=&quot;margin:0px;margin-left:4px;&quot;&gt;&amp;nbsp; &amp;nbsp; DominoGame getDominoGame();&lt;/p&gt;" style="verticalAlign=top;align=left;overflow=fill;fontSize=12;fontFamily=Helvetica;html=1;whiteSpace=wrap;" parent="WIyWlLk6GJQsqaUBKTNV-1" vertex="1">
          <mxGeometry x="-250" y="830" width="360" height="590" as="geometry" />
        </mxCell>
        <mxCell id="cNR-y7nXcuCfaeGXSN0F-33" value="&lt;p style=&quot;margin:0px;margin-top:4px;text-align:center;&quot;&gt;&lt;i&gt;&amp;lt;&amp;lt;Interface&amp;gt;&amp;gt;&lt;/i&gt;&lt;br&gt;&lt;b&gt;MainMenuViewListener&lt;/b&gt;&lt;br&gt;&lt;/p&gt;&lt;p style=&quot;margin:0px;margin-left:4px;&quot;&gt;&lt;br&gt;&lt;/p&gt;&lt;p style=&quot;margin:0px;margin-left:4px;&quot;&gt;&amp;nbsp;void setBoardPresenter(BoardPresenter presenter);&lt;/p&gt;&lt;p style=&quot;margin:0px;margin-left:4px;&quot;&gt;&lt;br&gt;&lt;/p&gt;&lt;p style=&quot;margin:0px;margin-left:4px;&quot;&gt;&amp;nbsp; &amp;nbsp; void onStartGameButton();&lt;/p&gt;&lt;p style=&quot;margin:0px;margin-left:4px;&quot;&gt;&lt;br&gt;&lt;/p&gt;&lt;p style=&quot;margin:0px;margin-left:4px;&quot;&gt;&amp;nbsp; &amp;nbsp; void onGameReadyButton();&lt;/p&gt;&lt;p style=&quot;margin:0px;margin-left:4px;&quot;&gt;&lt;br&gt;&lt;/p&gt;&lt;p style=&quot;margin:0px;margin-left:4px;&quot;&gt;&amp;nbsp; &amp;nbsp; void setModel(Model model);&lt;/p&gt;&lt;p style=&quot;margin:0px;margin-left:4px;&quot;&gt;&lt;br&gt;&lt;/p&gt;&lt;p style=&quot;margin:0px;margin-left:4px;&quot;&gt;&amp;nbsp; &amp;nbsp; void setTilesPerPlayer(int cant);&lt;/p&gt;&lt;p style=&quot;margin:0px;margin-left:4px;&quot;&gt;&lt;br&gt;&lt;/p&gt;&lt;p style=&quot;margin:0px;margin-left:4px;&quot;&gt;&amp;nbsp; &amp;nbsp; void createAvatar(String name, String Image);&lt;/p&gt;&lt;p style=&quot;margin:0px;margin-left:4px;&quot;&gt;&lt;br&gt;&lt;/p&gt;&lt;p style=&quot;margin:0px;margin-left:4px;&quot;&gt;&amp;nbsp; &amp;nbsp; Avatar getAvatar();&lt;/p&gt;&lt;p style=&quot;margin:0px;margin-left:4px;&quot;&gt;&lt;br&gt;&lt;/p&gt;&lt;p style=&quot;margin:0px;margin-left:4px;&quot;&gt;&amp;nbsp; &amp;nbsp; void createPlayer(Avatar avatar);&lt;/p&gt;&lt;p style=&quot;margin:0px;margin-left:4px;&quot;&gt;&lt;br&gt;&lt;/p&gt;&lt;p style=&quot;margin:0px;margin-left:4px;&quot;&gt;&amp;nbsp; &amp;nbsp; void removePlayer(Player player);&lt;/p&gt;&lt;p style=&quot;margin:0px;margin-left:4px;&quot;&gt;&lt;br&gt;&lt;/p&gt;&lt;p style=&quot;margin:0px;margin-left:4px;&quot;&gt;&amp;nbsp; &amp;nbsp; void createDominoGame();&lt;/p&gt;&lt;p style=&quot;margin:0px;margin-left:4px;&quot;&gt;&lt;br&gt;&lt;/p&gt;&lt;p style=&quot;margin:0px;margin-left:4px;&quot;&gt;&amp;nbsp; &amp;nbsp; void createTurnController();&lt;/p&gt;&lt;p style=&quot;margin:0px;margin-left:4px;&quot;&gt;&lt;br&gt;&lt;/p&gt;&lt;p style=&quot;margin:0px;margin-left:4px;&quot;&gt;&amp;nbsp; &amp;nbsp; DominoGame getDominoGame();&lt;/p&gt;" style="verticalAlign=top;align=left;overflow=fill;fontSize=12;fontFamily=Helvetica;html=1;whiteSpace=wrap;" parent="WIyWlLk6GJQsqaUBKTNV-1" vertex="1">
          <mxGeometry x="-605" y="790" width="295" height="410" as="geometry" />
        </mxCell>
        <mxCell id="cNR-y7nXcuCfaeGXSN0F-34" value="MenuJPanel" style="swimlane;fontStyle=0;align=center;verticalAlign=top;childLayout=stackLayout;horizontal=1;startSize=40;horizontalStack=0;resizeParent=1;resizeLast=0;collapsible=1;marginBottom=0;rounded=0;shadow=0;strokeWidth=1;" parent="WIyWlLk6GJQsqaUBKTNV-1" vertex="1">
          <mxGeometry x="160" y="500" width="160" height="130" as="geometry">
            <mxRectangle x="550" y="140" width="160" height="26" as="alternateBounds" />
          </mxGeometry>
        </mxCell>
        <mxCell id="cNR-y7nXcuCfaeGXSN0F-35" value="-view: V" style="text;align=left;verticalAlign=top;spacingLeft=4;spacingRight=4;overflow=hidden;rotatable=0;points=[[0,0.5],[1,0.5]];portConstraint=eastwest;" parent="cNR-y7nXcuCfaeGXSN0F-34" vertex="1">
          <mxGeometry y="40" width="160" height="30" as="geometry" />
        </mxCell>
        <mxCell id="cNR-y7nXcuCfaeGXSN0F-36" value="" style="line;html=1;strokeWidth=1;align=left;verticalAlign=middle;spacingTop=-1;spacingLeft=3;spacingRight=3;rotatable=0;labelPosition=right;points=[];portConstraint=eastwest;" parent="cNR-y7nXcuCfaeGXSN0F-34" vertex="1">
          <mxGeometry y="70" width="160" height="8" as="geometry" />
        </mxCell>
        <mxCell id="cNR-y7nXcuCfaeGXSN0F-37" value="+MenuJPanel()&#xa;+setView(V view):V" style="text;align=left;verticalAlign=top;spacingLeft=4;spacingRight=4;overflow=hidden;rotatable=0;points=[[0,0.5],[1,0.5]];portConstraint=eastwest;" parent="cNR-y7nXcuCfaeGXSN0F-34" vertex="1">
          <mxGeometry y="78" width="160" height="42" as="geometry" />
        </mxCell>
        <mxCell id="cNR-y7nXcuCfaeGXSN0F-38" value="&lt;h2 style=&quot;line-height: 120%;&quot;&gt;Client.ui.base&lt;/h2&gt;" style="shape=folder;fontStyle=1;spacingTop=10;tabWidth=40;tabHeight=14;tabPosition=left;html=1;whiteSpace=wrap;align=left;" parent="WIyWlLk6GJQsqaUBKTNV-1" vertex="1">
          <mxGeometry x="-485" y="-1000" width="685" height="440" as="geometry" />
        </mxCell>
        <mxCell id="cNR-y7nXcuCfaeGXSN0F-39" value="BasePanel" style="swimlane;fontStyle=0;align=center;verticalAlign=top;childLayout=stackLayout;horizontal=1;startSize=40;horizontalStack=0;resizeParent=1;resizeLast=0;collapsible=1;marginBottom=0;rounded=0;shadow=0;strokeWidth=1;" parent="WIyWlLk6GJQsqaUBKTNV-1" vertex="1">
          <mxGeometry x="-472.5" y="-674" width="160" height="90" as="geometry">
            <mxRectangle x="550" y="140" width="160" height="26" as="alternateBounds" />
          </mxGeometry>
        </mxCell>
        <mxCell id="cNR-y7nXcuCfaeGXSN0F-40" value="- setView(V view): V " style="text;align=left;verticalAlign=top;spacingLeft=4;spacingRight=4;overflow=hidden;rotatable=0;points=[[0,0.5],[1,0.5]];portConstraint=eastwest;" parent="cNR-y7nXcuCfaeGXSN0F-39" vertex="1">
          <mxGeometry y="40" width="160" height="30" as="geometry" />
        </mxCell>
        <mxCell id="cNR-y7nXcuCfaeGXSN0F-41" value="" style="line;html=1;strokeWidth=1;align=left;verticalAlign=middle;spacingTop=-1;spacingLeft=3;spacingRight=3;rotatable=0;labelPosition=right;points=[];portConstraint=eastwest;" parent="cNR-y7nXcuCfaeGXSN0F-39" vertex="1">
          <mxGeometry y="70" width="160" height="8" as="geometry" />
        </mxCell>
        <mxCell id="cNR-y7nXcuCfaeGXSN0F-43" value="&lt;p style=&quot;margin:0px;margin-top:4px;text-align:center;&quot;&gt;&lt;i&gt;&amp;lt;&amp;lt;Interface&amp;gt;&amp;gt;&lt;/i&gt;&lt;br&gt;&lt;b&gt;Presenter&lt;/b&gt;&lt;/p&gt;&lt;hr size=&quot;1&quot;&gt;&lt;p style=&quot;margin:0px;margin-left:4px;&quot;&gt;&lt;/p&gt;&lt;p style=&quot;margin:0px;margin-left:4px;&quot;&gt;&lt;br&gt;&lt;/p&gt;" style="verticalAlign=top;align=left;overflow=fill;fontSize=12;fontFamily=Helvetica;html=1;whiteSpace=wrap;" parent="WIyWlLk6GJQsqaUBKTNV-1" vertex="1">
          <mxGeometry x="-470" y="-940" width="155" height="50" as="geometry" />
        </mxCell>
        <mxCell id="cNR-y7nXcuCfaeGXSN0F-44" value="&lt;p style=&quot;margin:0px;margin-top:4px;text-align:center;&quot;&gt;&lt;i&gt;&amp;lt;&amp;lt;Interface&amp;gt;&amp;gt;&lt;/i&gt;&lt;br&gt;&lt;b&gt;View&lt;/b&gt;&lt;br&gt;&lt;/p&gt;&lt;hr size=&quot;1&quot;&gt;&lt;p style=&quot;margin:0px;margin-left:4px;&quot;&gt;&amp;nbsp;-void load()&lt;/p&gt;&lt;p style=&quot;margin:0px;margin-left:4px;&quot;&gt;&amp;nbsp;-void close()&lt;/p&gt;" style="verticalAlign=top;align=left;overflow=fill;fontSize=12;fontFamily=Helvetica;html=1;whiteSpace=wrap;" parent="WIyWlLk6GJQsqaUBKTNV-1" vertex="1">
          <mxGeometry x="-300" y="-835" width="190" height="140" as="geometry" />
        </mxCell>
        <mxCell id="w_bH7sn8cNDMSygffET5-0" value="&lt;h2 style=&quot;line-height: 120%;&quot;&gt;Client.data.dominio&lt;/h2&gt;" style="shape=folder;fontStyle=1;spacingTop=10;tabWidth=40;tabHeight=14;tabPosition=left;html=1;whiteSpace=wrap;align=left;" parent="WIyWlLk6GJQsqaUBKTNV-1" vertex="1">
          <mxGeometry x="-1510" y="-410" width="1080" height="630" as="geometry" />
        </mxCell>
        <mxCell id="w_bH7sn8cNDMSygffET5-5" value="Avatar" style="swimlane;fontStyle=1;align=center;verticalAlign=top;childLayout=stackLayout;horizontal=1;startSize=26;horizontalStack=0;resizeParent=1;resizeParentMax=0;resizeLast=0;collapsible=1;marginBottom=0;whiteSpace=wrap;html=1;" parent="WIyWlLk6GJQsqaUBKTNV-1" vertex="1">
          <mxGeometry x="-1494" y="-384" width="180" height="180" as="geometry" />
        </mxCell>
        <mxCell id="w_bH7sn8cNDMSygffET5-6" value="- name:String&lt;br&gt;- image:String" style="text;strokeColor=none;fillColor=none;align=left;verticalAlign=top;spacingLeft=4;spacingRight=4;overflow=hidden;rotatable=0;points=[[0,0.5],[1,0.5]];portConstraint=eastwest;whiteSpace=wrap;html=1;" parent="w_bH7sn8cNDMSygffET5-5" vertex="1">
          <mxGeometry y="26" width="180" height="44" as="geometry" />
        </mxCell>
        <mxCell id="w_bH7sn8cNDMSygffET5-7" value="" style="line;strokeWidth=1;fillColor=none;align=left;verticalAlign=middle;spacingTop=-1;spacingLeft=3;spacingRight=3;rotatable=0;labelPosition=right;points=[];portConstraint=eastwest;strokeColor=inherit;" parent="w_bH7sn8cNDMSygffET5-5" vertex="1">
          <mxGeometry y="70" width="180" height="8" as="geometry" />
        </mxCell>
        <mxCell id="hqVZ_NZ4zXhZ4NYHyMc--49" value="+Avatar()&lt;br&gt;+void paint()&lt;br&gt;+String getName()&lt;br&gt;+void setName(String name)&lt;br&gt;+String getImage()&lt;br&gt;+void setImage(String image)" style="text;strokeColor=none;fillColor=none;align=left;verticalAlign=top;spacingLeft=4;spacingRight=4;overflow=hidden;rotatable=0;points=[[0,0.5],[1,0.5]];portConstraint=eastwest;whiteSpace=wrap;html=1;" parent="w_bH7sn8cNDMSygffET5-5" vertex="1">
          <mxGeometry y="78" width="180" height="102" as="geometry" />
        </mxCell>
        <mxCell id="w_bH7sn8cNDMSygffET5-9" value="" style="endArrow=block;dashed=1;endFill=0;endSize=12;html=1;rounded=0;entryX=0.5;entryY=0;entryDx=0;entryDy=0;" parent="WIyWlLk6GJQsqaUBKTNV-1" source="cNR-y7nXcuCfaeGXSN0F-23" target="cNR-y7nXcuCfaeGXSN0F-32" edge="1">
          <mxGeometry width="160" relative="1" as="geometry">
            <mxPoint x="-150" y="860" as="sourcePoint" />
            <mxPoint x="10" y="860" as="targetPoint" />
          </mxGeometry>
        </mxCell>
        <mxCell id="w_bH7sn8cNDMSygffET5-10" value="" style="endArrow=block;dashed=1;endFill=0;endSize=12;html=1;rounded=0;exitX=0.579;exitY=0.008;exitDx=0;exitDy=0;exitPerimeter=0;entryX=0.5;entryY=1;entryDx=0;entryDy=0;" parent="WIyWlLk6GJQsqaUBKTNV-1" source="ngE_6K4PF9mm5ZxgfQsE-32" target="cNR-y7nXcuCfaeGXSN0F-39" edge="1">
          <mxGeometry width="160" relative="1" as="geometry">
            <mxPoint x="-570" y="680" as="sourcePoint" />
            <mxPoint x="-410" y="680" as="targetPoint" />
          </mxGeometry>
        </mxCell>
        <mxCell id="w_bH7sn8cNDMSygffET5-11" value="" style="endArrow=block;dashed=1;endFill=0;endSize=12;html=1;rounded=0;exitX=0.5;exitY=0;exitDx=0;exitDy=0;entryX=0.5;entryY=1;entryDx=0;entryDy=0;" parent="WIyWlLk6GJQsqaUBKTNV-1" source="ngE_6K4PF9mm5ZxgfQsE-46" target="cNR-y7nXcuCfaeGXSN0F-39" edge="1">
          <mxGeometry width="160" relative="1" as="geometry">
            <mxPoint x="-710" y="560" as="sourcePoint" />
            <mxPoint x="-290" y="-580" as="targetPoint" />
          </mxGeometry>
        </mxCell>
        <mxCell id="w_bH7sn8cNDMSygffET5-12" value="" style="endArrow=block;dashed=1;endFill=0;endSize=12;html=1;rounded=0;exitX=0.5;exitY=0;exitDx=0;exitDy=0;entryX=0.5;entryY=1;entryDx=0;entryDy=0;" parent="WIyWlLk6GJQsqaUBKTNV-1" source="ngE_6K4PF9mm5ZxgfQsE-58" target="cNR-y7nXcuCfaeGXSN0F-39" edge="1">
          <mxGeometry width="160" relative="1" as="geometry">
            <mxPoint x="-570" y="660" as="sourcePoint" />
            <mxPoint x="-410" y="660" as="targetPoint" />
          </mxGeometry>
        </mxCell>
        <mxCell id="w_bH7sn8cNDMSygffET5-14" value="" style="endArrow=block;dashed=1;endFill=0;endSize=12;html=1;rounded=0;exitX=0.25;exitY=0;exitDx=0;exitDy=0;" parent="WIyWlLk6GJQsqaUBKTNV-1" source="cNR-y7nXcuCfaeGXSN0F-24" target="cNR-y7nXcuCfaeGXSN0F-33" edge="1">
          <mxGeometry width="160" relative="1" as="geometry">
            <mxPoint x="-450" y="1020" as="sourcePoint" />
            <mxPoint x="-290" y="1020" as="targetPoint" />
          </mxGeometry>
        </mxCell>
        <mxCell id="w_bH7sn8cNDMSygffET5-15" value="" style="endArrow=block;dashed=1;endFill=0;endSize=12;html=1;rounded=0;exitX=0.5;exitY=0;exitDx=0;exitDy=0;entryX=0.5;entryY=1;entryDx=0;entryDy=0;" parent="WIyWlLk6GJQsqaUBKTNV-1" source="cNR-y7nXcuCfaeGXSN0F-34" target="cNR-y7nXcuCfaeGXSN0F-39" edge="1">
          <mxGeometry width="160" relative="1" as="geometry">
            <mxPoint x="-10" y="720" as="sourcePoint" />
            <mxPoint x="150" y="720" as="targetPoint" />
          </mxGeometry>
        </mxCell>
        <mxCell id="hqVZ_NZ4zXhZ4NYHyMc--3" value="" style="endArrow=block;dashed=1;endFill=0;endSize=12;html=1;rounded=0;exitX=0.75;exitY=0;exitDx=0;exitDy=0;" parent="WIyWlLk6GJQsqaUBKTNV-1" source="cNR-y7nXcuCfaeGXSN0F-32" target="cNR-y7nXcuCfaeGXSN0F-44" edge="1">
          <mxGeometry width="160" relative="1" as="geometry">
            <mxPoint x="-64" y="920" as="sourcePoint" />
            <mxPoint x="-50" y="980" as="targetPoint" />
          </mxGeometry>
        </mxCell>
        <mxCell id="w_bH7sn8cNDMSygffET5-16" value="ModelManager&lt;div style=&quot;border-color: var(--border-color); padding: 0px; margin: 0px;&quot;&gt;&lt;br style=&quot;border-color: var(--border-color); padding: 0px; margin: 0px; font-weight: 400;&quot;&gt;&lt;/div&gt;" style="swimlane;fontStyle=1;align=center;verticalAlign=top;childLayout=stackLayout;horizontal=1;startSize=26;horizontalStack=0;resizeParent=1;resizeParentMax=0;resizeLast=0;collapsible=1;marginBottom=0;whiteSpace=wrap;html=1;" parent="WIyWlLk6GJQsqaUBKTNV-1" vertex="1">
          <mxGeometry x="200" y="-440" width="250" height="150" as="geometry" />
        </mxCell>
        <mxCell id="w_bH7sn8cNDMSygffET5-17" value="&lt;div&gt;-Config configuration;&lt;/div&gt;&lt;div&gt;-avatar:Avatar&lt;/div&gt;&lt;div&gt;&lt;span style=&quot;background-color: initial;&quot;&gt;-turnController:TurnController&lt;/span&gt;&lt;/div&gt;&lt;div&gt;&lt;span style=&quot;background-color: initial;&quot;&gt;-players:List&amp;lt;Player&amp;gt;&lt;/span&gt;&lt;/div&gt;&lt;div&gt;-dominoGame:DominoGame&lt;/div&gt;" style="text;strokeColor=none;fillColor=none;align=left;verticalAlign=top;spacingLeft=4;spacingRight=4;overflow=hidden;rotatable=0;points=[[0,0.5],[1,0.5]];portConstraint=eastwest;whiteSpace=wrap;html=1;" parent="w_bH7sn8cNDMSygffET5-16" vertex="1">
          <mxGeometry y="26" width="250" height="84" as="geometry" />
        </mxCell>
        <mxCell id="w_bH7sn8cNDMSygffET5-18" value="" style="line;strokeWidth=1;fillColor=none;align=left;verticalAlign=middle;spacingTop=-1;spacingLeft=3;spacingRight=3;rotatable=0;labelPosition=right;points=[];portConstraint=eastwest;strokeColor=inherit;" parent="w_bH7sn8cNDMSygffET5-16" vertex="1">
          <mxGeometry y="110" width="250" height="8" as="geometry" />
        </mxCell>
        <mxCell id="w_bH7sn8cNDMSygffET5-19" value="+ModelManager()&lt;br&gt;" style="text;strokeColor=none;fillColor=none;align=left;verticalAlign=top;spacingLeft=4;spacingRight=4;overflow=hidden;rotatable=0;points=[[0,0.5],[1,0.5]];portConstraint=eastwest;whiteSpace=wrap;html=1;" parent="w_bH7sn8cNDMSygffET5-16" vertex="1">
          <mxGeometry y="118" width="250" height="32" as="geometry" />
        </mxCell>
        <mxCell id="w_bH7sn8cNDMSygffET5-20" value="" style="endArrow=block;dashed=1;endFill=0;endSize=12;html=1;rounded=0;exitX=0;exitY=0.5;exitDx=0;exitDy=0;entryX=0.496;entryY=1.008;entryDx=0;entryDy=0;entryPerimeter=0;" parent="WIyWlLk6GJQsqaUBKTNV-1" source="w_bH7sn8cNDMSygffET5-17" target="w_bH7sn8cNDMSygffET5-24" edge="1">
          <mxGeometry width="160" relative="1" as="geometry">
            <mxPoint x="390" y="-260" as="sourcePoint" />
            <mxPoint x="550" y="-260" as="targetPoint" />
          </mxGeometry>
        </mxCell>
        <mxCell id="w_bH7sn8cNDMSygffET5-21" value="Model" style="swimlane;fontStyle=1;align=center;verticalAlign=top;childLayout=stackLayout;horizontal=1;startSize=26;horizontalStack=0;resizeParent=1;resizeParentMax=0;resizeLast=0;collapsible=1;marginBottom=0;whiteSpace=wrap;html=1;" parent="WIyWlLk6GJQsqaUBKTNV-1" vertex="1">
          <mxGeometry x="-90" y="-860" width="260" height="190" as="geometry" />
        </mxCell>
        <mxCell id="w_bH7sn8cNDMSygffET5-23" value="" style="line;strokeWidth=1;fillColor=none;align=left;verticalAlign=middle;spacingTop=-1;spacingLeft=3;spacingRight=3;rotatable=0;labelPosition=right;points=[];portConstraint=eastwest;strokeColor=inherit;" parent="w_bH7sn8cNDMSygffET5-21" vertex="1">
          <mxGeometry y="26" width="260" height="8" as="geometry" />
        </mxCell>
        <mxCell id="w_bH7sn8cNDMSygffET5-24" value="&lt;div&gt;-void setTilesPerPlayer(int )&lt;/div&gt;&lt;div&gt;&lt;span style=&quot;background-color: initial;&quot;&gt;-void createAvatar(String , String )&lt;/span&gt;&lt;br&gt;&lt;/div&gt;&lt;div&gt;-void getAvatar():Avatar&lt;/div&gt;&lt;div&gt;-void createPlayer(Avatar )&lt;/div&gt;&lt;div&gt;-void addPlayer(Player )&lt;/div&gt;&lt;div&gt;&lt;span style=&quot;background-color: initial;&quot;&gt;-void removePlayer(Player )&lt;/span&gt;&lt;/div&gt;&lt;div&gt;-void createDominoGame()&lt;/div&gt;&lt;div&gt;-void createTurnController()&lt;/div&gt;&lt;div&gt;-getDominoGame():DominoGame&lt;/div&gt;" style="text;strokeColor=none;fillColor=none;align=left;verticalAlign=top;spacingLeft=4;spacingRight=4;overflow=hidden;rotatable=0;points=[[0,0.5],[1,0.5]];portConstraint=eastwest;whiteSpace=wrap;html=1;" parent="w_bH7sn8cNDMSygffET5-21" vertex="1">
          <mxGeometry y="34" width="260" height="156" as="geometry" />
        </mxCell>
        <mxCell id="hqVZ_NZ4zXhZ4NYHyMc--4" value="&amp;lt;V extends MainMenuView&amp;gt;" style="rounded=0;whiteSpace=wrap;html=1;" parent="WIyWlLk6GJQsqaUBKTNV-1" vertex="1">
          <mxGeometry x="-670" y="630" width="84" height="40" as="geometry" />
        </mxCell>
        <mxCell id="hqVZ_NZ4zXhZ4NYHyMc--5" value="&amp;lt;V extends MainMenuView&amp;gt;" style="rounded=0;whiteSpace=wrap;html=1;" parent="WIyWlLk6GJQsqaUBKTNV-1" vertex="1">
          <mxGeometry x="-434.5" y="440" width="84" height="40" as="geometry" />
        </mxCell>
        <mxCell id="hqVZ_NZ4zXhZ4NYHyMc--6" value="&amp;lt;V extends MainMenuView&amp;gt;" style="rounded=0;whiteSpace=wrap;html=1;" parent="WIyWlLk6GJQsqaUBKTNV-1" vertex="1">
          <mxGeometry x="-670" y="460" width="84" height="40" as="geometry" />
        </mxCell>
        <mxCell id="w_bH7sn8cNDMSygffET5-25" value="Board" style="swimlane;fontStyle=1;align=center;verticalAlign=top;childLayout=stackLayout;horizontal=1;startSize=26;horizontalStack=0;resizeParent=1;resizeParentMax=0;resizeLast=0;collapsible=1;marginBottom=0;whiteSpace=wrap;html=1;" parent="WIyWlLk6GJQsqaUBKTNV-1" vertex="1">
          <mxGeometry x="-1304" y="-384" width="184" height="190" as="geometry" />
        </mxCell>
        <mxCell id="w_bH7sn8cNDMSygffET5-26" value="- tiles:List&amp;lt;DominoTile&amp;gt;&lt;br&gt;" style="text;strokeColor=none;fillColor=none;align=left;verticalAlign=top;spacingLeft=4;spacingRight=4;overflow=hidden;rotatable=0;points=[[0,0.5],[1,0.5]];portConstraint=eastwest;whiteSpace=wrap;html=1;" parent="w_bH7sn8cNDMSygffET5-25" vertex="1">
          <mxGeometry y="26" width="184" height="24" as="geometry" />
        </mxCell>
        <mxCell id="w_bH7sn8cNDMSygffET5-27" value="" style="line;strokeWidth=1;fillColor=none;align=left;verticalAlign=middle;spacingTop=-1;spacingLeft=3;spacingRight=3;rotatable=0;labelPosition=right;points=[];portConstraint=eastwest;strokeColor=inherit;" parent="w_bH7sn8cNDMSygffET5-25" vertex="1">
          <mxGeometry y="50" width="184" height="8" as="geometry" />
        </mxCell>
        <mxCell id="hqVZ_NZ4zXhZ4NYHyMc--50" value="+Board()&lt;br&gt;+List&amp;lt;DominoTile&amp;gt; getTiles()&lt;br&gt;+void setTiles(List&amp;lt;DominoTile&amp;gt; tiles)&lt;br&gt;+void addTile(DominoTile tile)" style="text;strokeColor=none;fillColor=none;align=left;verticalAlign=top;spacingLeft=4;spacingRight=4;overflow=hidden;rotatable=0;points=[[0,0.5],[1,0.5]];portConstraint=eastwest;whiteSpace=wrap;html=1;" parent="w_bH7sn8cNDMSygffET5-25" vertex="1">
          <mxGeometry y="58" width="184" height="132" as="geometry" />
        </mxCell>
        <mxCell id="w_bH7sn8cNDMSygffET5-29" value="Config" style="swimlane;fontStyle=1;align=center;verticalAlign=top;childLayout=stackLayout;horizontal=1;startSize=26;horizontalStack=0;resizeParent=1;resizeParentMax=0;resizeLast=0;collapsible=1;marginBottom=0;whiteSpace=wrap;html=1;" parent="WIyWlLk6GJQsqaUBKTNV-1" vertex="1">
          <mxGeometry x="-1100" y="-384" width="160" height="130" as="geometry" />
        </mxCell>
        <mxCell id="w_bH7sn8cNDMSygffET5-30" value="- tilesPerPlayer:int" style="text;strokeColor=none;fillColor=none;align=left;verticalAlign=top;spacingLeft=4;spacingRight=4;overflow=hidden;rotatable=0;points=[[0,0.5],[1,0.5]];portConstraint=eastwest;whiteSpace=wrap;html=1;" parent="w_bH7sn8cNDMSygffET5-29" vertex="1">
          <mxGeometry y="26" width="160" height="24" as="geometry" />
        </mxCell>
        <mxCell id="w_bH7sn8cNDMSygffET5-31" value="" style="line;strokeWidth=1;fillColor=none;align=left;verticalAlign=middle;spacingTop=-1;spacingLeft=3;spacingRight=3;rotatable=0;labelPosition=right;points=[];portConstraint=eastwest;strokeColor=inherit;" parent="w_bH7sn8cNDMSygffET5-29" vertex="1">
          <mxGeometry y="50" width="160" height="8" as="geometry" />
        </mxCell>
        <mxCell id="hqVZ_NZ4zXhZ4NYHyMc--51" value="+Config()&lt;br style=&quot;border-color: var(--border-color);&quot;&gt;+int getTilesPerPlayer()&lt;br style=&quot;border-color: var(--border-color);&quot;&gt;+void setTilesPerPlayer(int tilesPerPlayer)" style="text;strokeColor=none;fillColor=none;align=left;verticalAlign=top;spacingLeft=4;spacingRight=4;overflow=hidden;rotatable=0;points=[[0,0.5],[1,0.5]];portConstraint=eastwest;whiteSpace=wrap;html=1;" parent="w_bH7sn8cNDMSygffET5-29" vertex="1">
          <mxGeometry y="58" width="160" height="72" as="geometry" />
        </mxCell>
        <mxCell id="w_bH7sn8cNDMSygffET5-33" value="DominoGame&lt;br&gt;" style="swimlane;fontStyle=1;align=center;verticalAlign=top;childLayout=stackLayout;horizontal=1;startSize=26;horizontalStack=0;resizeParent=1;resizeParentMax=0;resizeLast=0;collapsible=1;marginBottom=0;whiteSpace=wrap;html=1;" parent="WIyWlLk6GJQsqaUBKTNV-1" vertex="1">
          <mxGeometry x="-1334" y="-174" width="234" height="370" as="geometry" />
        </mxCell>
        <mxCell id="w_bH7sn8cNDMSygffET5-34" value="&lt;div&gt;-pool:Pool&lt;/div&gt;&lt;div&gt;-config: Config&lt;/div&gt;&lt;div&gt;-players:Players&lt;/div&gt;&lt;div&gt;-turnController:TurnController&lt;/div&gt;&lt;div&gt;-board:Board&lt;/div&gt;" style="text;strokeColor=none;fillColor=none;align=left;verticalAlign=top;spacingLeft=4;spacingRight=4;overflow=hidden;rotatable=0;points=[[0,0.5],[1,0.5]];portConstraint=eastwest;whiteSpace=wrap;html=1;" parent="w_bH7sn8cNDMSygffET5-33" vertex="1">
          <mxGeometry y="26" width="234" height="94" as="geometry" />
        </mxCell>
        <mxCell id="w_bH7sn8cNDMSygffET5-35" value="" style="line;strokeWidth=1;fillColor=none;align=left;verticalAlign=middle;spacingTop=-1;spacingLeft=3;spacingRight=3;rotatable=0;labelPosition=right;points=[];portConstraint=eastwest;strokeColor=inherit;" parent="w_bH7sn8cNDMSygffET5-33" vertex="1">
          <mxGeometry y="120" width="234" height="10" as="geometry" />
        </mxCell>
        <mxCell id="w_bH7sn8cNDMSygffET5-36" value="+DominoGame()&lt;br&gt;+void shufflePlayers()&lt;br&gt;+void changeTurn()&lt;br&gt;+void addPlayer(Player player)&lt;br&gt;+DominoGame getInstance()&lt;br&gt;+Pool getPool()&lt;br&gt;+void setPool(Pool pool)&lt;br&gt;+Config getConfig()&lt;br&gt;+void setConfig(Config config)&lt;br&gt;+List&amp;lt;Player&amp;gt; getPlayers()&lt;br&gt;+void setPlayers(List&amp;lt;Player&amp;gt; players)&lt;br&gt;+TurnController getTurnController()&lt;br&gt;+void setTurnController(TurnController turnController)&lt;br&gt;+Board getBoard()&lt;br&gt;+void setBoard(Board board)" style="text;strokeColor=none;fillColor=none;align=left;verticalAlign=top;spacingLeft=4;spacingRight=4;overflow=hidden;rotatable=0;points=[[0,0.5],[1,0.5]];portConstraint=eastwest;whiteSpace=wrap;html=1;" parent="w_bH7sn8cNDMSygffET5-33" vertex="1">
          <mxGeometry y="130" width="234" height="240" as="geometry" />
        </mxCell>
        <mxCell id="hqVZ_NZ4zXhZ4NYHyMc--7" value="&amp;lt;V extends MainMenuView&amp;gt;" style="rounded=0;whiteSpace=wrap;html=1;" parent="WIyWlLk6GJQsqaUBKTNV-1" vertex="1">
          <mxGeometry x="276" y="480" width="84" height="40" as="geometry" />
        </mxCell>
        <mxCell id="hqVZ_NZ4zXhZ4NYHyMc--8" value="&amp;lt;V extends MainMenuView&amp;gt;" style="rounded=0;whiteSpace=wrap;html=1;" parent="WIyWlLk6GJQsqaUBKTNV-1" vertex="1">
          <mxGeometry x="-350.5" y="-690" width="84" height="40" as="geometry" />
        </mxCell>
        <mxCell id="w_bH7sn8cNDMSygffET5-37" value="DominoTile" style="swimlane;fontStyle=1;align=center;verticalAlign=top;childLayout=stackLayout;horizontal=1;startSize=26;horizontalStack=0;resizeParent=1;resizeParentMax=0;resizeLast=0;collapsible=1;marginBottom=0;whiteSpace=wrap;html=1;" parent="WIyWlLk6GJQsqaUBKTNV-1" vertex="1">
          <mxGeometry x="-920" y="-384" width="190" height="210" as="geometry" />
        </mxCell>
        <mxCell id="w_bH7sn8cNDMSygffET5-38" value="&lt;div&gt;leftValue:int&lt;/div&gt;&lt;div&gt;&lt;span style=&quot;background-color: initial;&quot;&gt;rightValue:int&amp;nbsp;&lt;/span&gt;&lt;/div&gt;" style="text;strokeColor=none;fillColor=none;align=left;verticalAlign=top;spacingLeft=4;spacingRight=4;overflow=hidden;rotatable=0;points=[[0,0.5],[1,0.5]];portConstraint=eastwest;whiteSpace=wrap;html=1;" parent="w_bH7sn8cNDMSygffET5-37" vertex="1">
          <mxGeometry y="26" width="190" height="54" as="geometry" />
        </mxCell>
        <mxCell id="w_bH7sn8cNDMSygffET5-39" value="" style="line;strokeWidth=1;fillColor=none;align=left;verticalAlign=middle;spacingTop=-1;spacingLeft=3;spacingRight=3;rotatable=0;labelPosition=right;points=[];portConstraint=eastwest;strokeColor=inherit;" parent="w_bH7sn8cNDMSygffET5-37" vertex="1">
          <mxGeometry y="80" width="190" height="10" as="geometry" />
        </mxCell>
        <mxCell id="hqVZ_NZ4zXhZ4NYHyMc--57" value="+DominoTile()&lt;br&gt;+void paint()&lt;br&gt;+void removePaint()&lt;br&gt;+int getLeftValue()&lt;br&gt;+void setLeftValue(int leftValue)&lt;br&gt;+int getRightValue()&lt;br&gt;void setRightValue(int rightValue)" style="text;strokeColor=none;fillColor=none;align=left;verticalAlign=top;spacingLeft=4;spacingRight=4;overflow=hidden;rotatable=0;points=[[0,0.5],[1,0.5]];portConstraint=eastwest;whiteSpace=wrap;html=1;" parent="w_bH7sn8cNDMSygffET5-37" vertex="1">
          <mxGeometry y="90" width="190" height="120" as="geometry" />
        </mxCell>
        <mxCell id="w_bH7sn8cNDMSygffET5-41" value="Player" style="swimlane;fontStyle=1;align=center;verticalAlign=top;childLayout=stackLayout;horizontal=1;startSize=26;horizontalStack=0;resizeParent=1;resizeParentMax=0;resizeLast=0;collapsible=1;marginBottom=0;whiteSpace=wrap;html=1;" parent="WIyWlLk6GJQsqaUBKTNV-1" vertex="1">
          <mxGeometry x="-1065" y="-156" width="215" height="230" as="geometry" />
        </mxCell>
        <mxCell id="w_bH7sn8cNDMSygffET5-42" value="&lt;div&gt;-tilesHand:List&amp;lt;DominoTile&amp;gt;&lt;/div&gt;&lt;div&gt;-avatar:Avatar&lt;/div&gt;" style="text;strokeColor=none;fillColor=none;align=left;verticalAlign=top;spacingLeft=4;spacingRight=4;overflow=hidden;rotatable=0;points=[[0,0.5],[1,0.5]];portConstraint=eastwest;whiteSpace=wrap;html=1;" parent="w_bH7sn8cNDMSygffET5-41" vertex="1">
          <mxGeometry y="26" width="215" height="34" as="geometry" />
        </mxCell>
        <mxCell id="w_bH7sn8cNDMSygffET5-43" value="" style="line;strokeWidth=1;fillColor=none;align=left;verticalAlign=middle;spacingTop=-1;spacingLeft=3;spacingRight=3;rotatable=0;labelPosition=right;points=[];portConstraint=eastwest;strokeColor=inherit;" parent="w_bH7sn8cNDMSygffET5-41" vertex="1">
          <mxGeometry y="60" width="215" height="10" as="geometry" />
        </mxCell>
        <mxCell id="hqVZ_NZ4zXhZ4NYHyMc--54" value="+Player()&lt;br&gt;+List&amp;lt;DominoTile&amp;gt; getTilesHand()&lt;br&gt;+void setTilesHand(List&amp;lt;DominoTile&amp;gt; tilesHand)&lt;br&gt;+Avatar getAvatar()&lt;br&gt;+void setAvatar(Avatar avatar)&lt;br&gt;+void addTile(DominoTile tile)&lt;br&gt;+void removeTile(DominoTile tile)" style="text;strokeColor=none;fillColor=none;align=left;verticalAlign=top;spacingLeft=4;spacingRight=4;overflow=hidden;rotatable=0;points=[[0,0.5],[1,0.5]];portConstraint=eastwest;whiteSpace=wrap;html=1;" parent="w_bH7sn8cNDMSygffET5-41" vertex="1">
          <mxGeometry y="70" width="215" height="160" as="geometry" />
        </mxCell>
        <mxCell id="hqVZ_NZ4zXhZ4NYHyMc--19" style="edgeStyle=orthogonalEdgeStyle;rounded=0;orthogonalLoop=1;jettySize=auto;html=1;endArrow=block;endFill=0;" parent="WIyWlLk6GJQsqaUBKTNV-1" source="hqVZ_NZ4zXhZ4NYHyMc--9" target="hqVZ_NZ4zXhZ4NYHyMc--15" edge="1">
          <mxGeometry relative="1" as="geometry">
            <Array as="points">
              <mxPoint x="-1350" y="550" />
            </Array>
          </mxGeometry>
        </mxCell>
        <mxCell id="hqVZ_NZ4zXhZ4NYHyMc--9" value="Board&lt;br&gt;" style="swimlane;fontStyle=1;align=center;verticalAlign=top;childLayout=stackLayout;horizontal=1;startSize=26;horizontalStack=0;resizeParent=1;resizeParentMax=0;resizeLast=0;collapsible=1;marginBottom=0;whiteSpace=wrap;html=1;" parent="WIyWlLk6GJQsqaUBKTNV-1" vertex="1">
          <mxGeometry x="-1250" y="470" width="360" height="430" as="geometry" />
        </mxCell>
        <mxCell id="hqVZ_NZ4zXhZ4NYHyMc--10" value="&lt;div&gt;&amp;nbsp; &amp;nbsp; int w, h, padding;&lt;/div&gt;&lt;div&gt;&amp;nbsp; &amp;nbsp; int maxFichas = 6;&lt;/div&gt;&lt;div&gt;&amp;nbsp; &amp;nbsp; Graphics2D g2;&lt;/div&gt;&lt;div&gt;&amp;nbsp; &amp;nbsp; Domino domino;&lt;/div&gt;&lt;div&gt;&amp;nbsp; &amp;nbsp; Point2D.Double p = new Point2D.Double(0, 0);&lt;/div&gt;&lt;div&gt;&amp;nbsp; &amp;nbsp; ArrayList&amp;lt;Jugador&amp;gt; jugadores;&lt;/div&gt;&lt;div&gt;&amp;nbsp; &amp;nbsp; Jugador principal;&lt;/div&gt;&lt;div&gt;&amp;nbsp; &amp;nbsp; Rectangle2D.Double tablero;&lt;/div&gt;&lt;div&gt;&amp;nbsp; &amp;nbsp; ArrayList&amp;lt;Ficha&amp;gt; usadas;&lt;/div&gt;&lt;div&gt;&amp;nbsp; &amp;nbsp; RenderingHints rh&lt;/div&gt;&lt;div&gt;&lt;br&gt;&lt;/div&gt;" style="text;strokeColor=none;fillColor=none;align=left;verticalAlign=top;spacingLeft=4;spacingRight=4;overflow=hidden;rotatable=0;points=[[0,0.5],[1,0.5]];portConstraint=eastwest;whiteSpace=wrap;html=1;" parent="hqVZ_NZ4zXhZ4NYHyMc--9" vertex="1">
          <mxGeometry y="26" width="360" height="204" as="geometry" />
        </mxCell>
        <mxCell id="hqVZ_NZ4zXhZ4NYHyMc--11" value="" style="line;strokeWidth=1;fillColor=none;align=left;verticalAlign=middle;spacingTop=-1;spacingLeft=3;spacingRight=3;rotatable=0;labelPosition=right;points=[];portConstraint=eastwest;strokeColor=inherit;" parent="hqVZ_NZ4zXhZ4NYHyMc--9" vertex="1">
          <mxGeometry y="230" width="360" height="8" as="geometry" />
        </mxCell>
        <mxCell id="hqVZ_NZ4zXhZ4NYHyMc--12" value="+ Borad()&lt;br&gt;- void pintarTablero(Graphics2D g2)&lt;br&gt;-void pintarJugadores(Graphics2D g2)&lt;br&gt;-void pintarJugadorPrincipal(Graphics2D g2)&lt;br&gt;-void pintarFichasPool(Graphics2D g2)&lt;br&gt;-void asignarfichasRandom()&lt;br&gt;-void pintarHover(Graphics2D g2)&lt;br&gt;-void jugadoresTemporales()&lt;br&gt;-void lugaresFichas()&lt;br&gt;-void pintarSelecionada(Graphics2D g2)&lt;br&gt;-void pintarFichasEnTablero(Graphics2D g2)&lt;br&gt;-void pintarSelecionadaPuntero(Graphics2D g2)" style="text;strokeColor=none;fillColor=none;align=left;verticalAlign=top;spacingLeft=4;spacingRight=4;overflow=hidden;rotatable=0;points=[[0,0.5],[1,0.5]];portConstraint=eastwest;whiteSpace=wrap;html=1;" parent="hqVZ_NZ4zXhZ4NYHyMc--9" vertex="1">
          <mxGeometry y="238" width="360" height="192" as="geometry" />
        </mxCell>
        <mxCell id="hqVZ_NZ4zXhZ4NYHyMc--38" style="edgeStyle=orthogonalEdgeStyle;rounded=0;orthogonalLoop=1;jettySize=auto;html=1;endArrow=block;endFill=0;" parent="WIyWlLk6GJQsqaUBKTNV-1" source="hqVZ_NZ4zXhZ4NYHyMc--14" target="cNR-y7nXcuCfaeGXSN0F-44" edge="1">
          <mxGeometry relative="1" as="geometry">
            <Array as="points">
              <mxPoint x="-1580" y="-765" />
            </Array>
          </mxGeometry>
        </mxCell>
        <mxCell id="hqVZ_NZ4zXhZ4NYHyMc--14" value="«interface»&lt;br&gt;&lt;b&gt;Board View&lt;/b&gt;" style="html=1;whiteSpace=wrap;" parent="WIyWlLk6GJQsqaUBKTNV-1" vertex="1">
          <mxGeometry x="-1630" y="475" width="110" height="50" as="geometry" />
        </mxCell>
        <mxCell id="hqVZ_NZ4zXhZ4NYHyMc--15" value="JPanel" style="swimlane;fontStyle=1;align=center;verticalAlign=top;childLayout=stackLayout;horizontal=1;startSize=26;horizontalStack=0;resizeParent=1;resizeParentMax=0;resizeLast=0;collapsible=1;marginBottom=0;whiteSpace=wrap;html=1;" parent="WIyWlLk6GJQsqaUBKTNV-1" vertex="1">
          <mxGeometry x="-1420" y="470" width="160" height="34" as="geometry" />
        </mxCell>
        <mxCell id="hqVZ_NZ4zXhZ4NYHyMc--17" value="" style="line;strokeWidth=1;fillColor=none;align=left;verticalAlign=middle;spacingTop=-1;spacingLeft=3;spacingRight=3;rotatable=0;labelPosition=right;points=[];portConstraint=eastwest;strokeColor=inherit;" parent="hqVZ_NZ4zXhZ4NYHyMc--15" vertex="1">
          <mxGeometry y="26" width="160" height="8" as="geometry" />
        </mxCell>
        <mxCell id="w_bH7sn8cNDMSygffET5-45" value="Pool" style="swimlane;fontStyle=1;align=center;verticalAlign=top;childLayout=stackLayout;horizontal=1;startSize=26;horizontalStack=0;resizeParent=1;resizeParentMax=0;resizeLast=0;collapsible=1;marginBottom=0;whiteSpace=wrap;html=1;" parent="WIyWlLk6GJQsqaUBKTNV-1" vertex="1">
          <mxGeometry x="-830" y="-150" width="220" height="220" as="geometry" />
        </mxCell>
        <mxCell id="w_bH7sn8cNDMSygffET5-46" value="-dominoes:&amp;nbsp;List&amp;lt;DominoTile&amp;gt;" style="text;strokeColor=none;fillColor=none;align=left;verticalAlign=top;spacingLeft=4;spacingRight=4;overflow=hidden;rotatable=0;points=[[0,0.5],[1,0.5]];portConstraint=eastwest;whiteSpace=wrap;html=1;" parent="w_bH7sn8cNDMSygffET5-45" vertex="1">
          <mxGeometry y="26" width="220" height="54" as="geometry" />
        </mxCell>
        <mxCell id="w_bH7sn8cNDMSygffET5-47" value="" style="line;strokeWidth=1;fillColor=none;align=left;verticalAlign=middle;spacingTop=-1;spacingLeft=3;spacingRight=3;rotatable=0;labelPosition=right;points=[];portConstraint=eastwest;strokeColor=inherit;" parent="w_bH7sn8cNDMSygffET5-45" vertex="1">
          <mxGeometry y="80" width="220" height="10" as="geometry" />
        </mxCell>
        <mxCell id="hqVZ_NZ4zXhZ4NYHyMc--55" value="+Pool()&lt;br&gt;+List&amp;lt;DominoTile&amp;gt; getDominoes()&lt;br&gt;+void setDominoes(List&amp;lt;DominoTile&amp;gt; dominoes)&lt;br&gt;+void addTile(DominoTile tile)&lt;br&gt;+void removeTile(DominoTile tile)" style="text;strokeColor=none;fillColor=none;align=left;verticalAlign=top;spacingLeft=4;spacingRight=4;overflow=hidden;rotatable=0;points=[[0,0.5],[1,0.5]];portConstraint=eastwest;whiteSpace=wrap;html=1;" parent="w_bH7sn8cNDMSygffET5-45" vertex="1">
          <mxGeometry y="90" width="220" height="130" as="geometry" />
        </mxCell>
        <mxCell id="w_bH7sn8cNDMSygffET5-48" value="TurnController" style="swimlane;fontStyle=1;align=center;verticalAlign=top;childLayout=stackLayout;horizontal=1;startSize=26;horizontalStack=0;resizeParent=1;resizeParentMax=0;resizeLast=0;collapsible=1;marginBottom=0;whiteSpace=wrap;html=1;" parent="WIyWlLk6GJQsqaUBKTNV-1" vertex="1">
          <mxGeometry x="-720" y="-384" width="220" height="190" as="geometry" />
        </mxCell>
        <mxCell id="w_bH7sn8cNDMSygffET5-49" value="-players:List&amp;lt;Player&amp;gt;" style="text;strokeColor=none;fillColor=none;align=left;verticalAlign=top;spacingLeft=4;spacingRight=4;overflow=hidden;rotatable=0;points=[[0,0.5],[1,0.5]];portConstraint=eastwest;whiteSpace=wrap;html=1;" parent="w_bH7sn8cNDMSygffET5-48" vertex="1">
          <mxGeometry y="26" width="220" height="24" as="geometry" />
        </mxCell>
        <mxCell id="w_bH7sn8cNDMSygffET5-50" value="" style="line;strokeWidth=1;fillColor=none;align=left;verticalAlign=middle;spacingTop=-1;spacingLeft=3;spacingRight=3;rotatable=0;labelPosition=right;points=[];portConstraint=eastwest;strokeColor=inherit;" parent="w_bH7sn8cNDMSygffET5-48" vertex="1">
          <mxGeometry y="50" width="220" height="10" as="geometry" />
        </mxCell>
        <mxCell id="hqVZ_NZ4zXhZ4NYHyMc--52" value="+TurnController()&lt;br&gt;+TurnController(List&amp;lt;Player&amp;gt; players)&lt;br&gt;+List&amp;lt;Player&amp;gt; getPlayers()&lt;br&gt;+void setPlayers(List&amp;lt;Player&amp;gt; players)&lt;br&gt;+void addPlayer(Player player)&lt;br&gt;+void changeTurn()" style="text;strokeColor=none;fillColor=none;align=left;verticalAlign=top;spacingLeft=4;spacingRight=4;overflow=hidden;rotatable=0;points=[[0,0.5],[1,0.5]];portConstraint=eastwest;whiteSpace=wrap;html=1;" parent="w_bH7sn8cNDMSygffET5-48" vertex="1">
          <mxGeometry y="60" width="220" height="130" as="geometry" />
        </mxCell>
        <mxCell id="hqVZ_NZ4zXhZ4NYHyMc--28" style="edgeStyle=orthogonalEdgeStyle;rounded=0;orthogonalLoop=1;jettySize=auto;html=1;dashed=1;endArrow=block;endFill=0;" parent="WIyWlLk6GJQsqaUBKTNV-1" source="hqVZ_NZ4zXhZ4NYHyMc--20" target="hqVZ_NZ4zXhZ4NYHyMc--14" edge="1">
          <mxGeometry relative="1" as="geometry" />
        </mxCell>
        <mxCell id="hqVZ_NZ4zXhZ4NYHyMc--20" value="BoardFrame" style="swimlane;fontStyle=1;align=center;verticalAlign=top;childLayout=stackLayout;horizontal=1;startSize=26;horizontalStack=0;resizeParent=1;resizeParentMax=0;resizeLast=0;collapsible=1;marginBottom=0;whiteSpace=wrap;html=1;" parent="WIyWlLk6GJQsqaUBKTNV-1" vertex="1">
          <mxGeometry x="-1654" y="607" width="160" height="60" as="geometry" />
        </mxCell>
        <mxCell id="hqVZ_NZ4zXhZ4NYHyMc--22" value="" style="line;strokeWidth=1;fillColor=none;align=left;verticalAlign=middle;spacingTop=-1;spacingLeft=3;spacingRight=3;rotatable=0;labelPosition=right;points=[];portConstraint=eastwest;strokeColor=inherit;" parent="hqVZ_NZ4zXhZ4NYHyMc--20" vertex="1">
          <mxGeometry y="26" width="160" height="8" as="geometry" />
        </mxCell>
        <mxCell id="hqVZ_NZ4zXhZ4NYHyMc--23" value="+BoardJFrame()&lt;br&gt;" style="text;strokeColor=none;fillColor=none;align=left;verticalAlign=top;spacingLeft=4;spacingRight=4;overflow=hidden;rotatable=0;points=[[0,0.5],[1,0.5]];portConstraint=eastwest;whiteSpace=wrap;html=1;" parent="hqVZ_NZ4zXhZ4NYHyMc--20" vertex="1">
          <mxGeometry y="34" width="160" height="26" as="geometry" />
        </mxCell>
        <mxCell id="hqVZ_NZ4zXhZ4NYHyMc--48" style="edgeStyle=orthogonalEdgeStyle;rounded=0;orthogonalLoop=1;jettySize=auto;html=1;endArrow=block;endFill=0;dashed=1;" parent="WIyWlLk6GJQsqaUBKTNV-1" source="w_bH7sn8cNDMSygffET5-52" target="hqVZ_NZ4zXhZ4NYHyMc--47" edge="1">
          <mxGeometry relative="1" as="geometry" />
        </mxCell>
        <mxCell id="w_bH7sn8cNDMSygffET5-52" value="Puntero" style="swimlane;fontStyle=1;align=center;verticalAlign=top;childLayout=stackLayout;horizontal=1;startSize=26;horizontalStack=0;resizeParent=1;resizeParentMax=0;resizeLast=0;collapsible=1;marginBottom=0;whiteSpace=wrap;html=1;" parent="WIyWlLk6GJQsqaUBKTNV-1" vertex="1">
          <mxGeometry x="-1360" y="970" width="200" height="100" as="geometry" />
        </mxCell>
        <mxCell id="w_bH7sn8cNDMSygffET5-53" value="-b:Board&lt;br&gt;" style="text;strokeColor=none;fillColor=none;align=left;verticalAlign=top;spacingLeft=4;spacingRight=4;overflow=hidden;rotatable=0;points=[[0,0.5],[1,0.5]];portConstraint=eastwest;whiteSpace=wrap;html=1;" parent="w_bH7sn8cNDMSygffET5-52" vertex="1">
          <mxGeometry y="26" width="200" height="26" as="geometry" />
        </mxCell>
        <mxCell id="w_bH7sn8cNDMSygffET5-54" value="" style="line;strokeWidth=1;fillColor=none;align=left;verticalAlign=middle;spacingTop=-1;spacingLeft=3;spacingRight=3;rotatable=0;labelPosition=right;points=[];portConstraint=eastwest;strokeColor=inherit;" parent="w_bH7sn8cNDMSygffET5-52" vertex="1">
          <mxGeometry y="52" width="200" height="8" as="geometry" />
        </mxCell>
        <mxCell id="w_bH7sn8cNDMSygffET5-55" value="+Puntero(Board b)" style="text;strokeColor=none;fillColor=none;align=left;verticalAlign=top;spacingLeft=4;spacingRight=4;overflow=hidden;rotatable=0;points=[[0,0.5],[1,0.5]];portConstraint=eastwest;whiteSpace=wrap;html=1;" parent="w_bH7sn8cNDMSygffET5-52" vertex="1">
          <mxGeometry y="60" width="200" height="40" as="geometry" />
        </mxCell>
        <mxCell id="hqVZ_NZ4zXhZ4NYHyMc--32" style="edgeStyle=orthogonalEdgeStyle;rounded=0;orthogonalLoop=1;jettySize=auto;html=1;endArrow=block;endFill=0;" parent="WIyWlLk6GJQsqaUBKTNV-1" source="hqVZ_NZ4zXhZ4NYHyMc--29" target="cNR-y7nXcuCfaeGXSN0F-43" edge="1">
          <mxGeometry relative="1" as="geometry">
            <Array as="points">
              <mxPoint x="-1790" y="-915" />
            </Array>
          </mxGeometry>
        </mxCell>
        <mxCell id="hqVZ_NZ4zXhZ4NYHyMc--29" value="«interface»&lt;br&gt;&lt;b&gt;BoardPresenter&lt;/b&gt;&lt;br&gt;&lt;br&gt;void loadBoard()" style="html=1;whiteSpace=wrap;" parent="WIyWlLk6GJQsqaUBKTNV-1" vertex="1">
          <mxGeometry x="-1860" y="475" width="120" height="85" as="geometry" />
        </mxCell>
        <mxCell id="hqVZ_NZ4zXhZ4NYHyMc--31" value="&amp;lt;V extends BoardView&amp;gt;" style="rounded=0;whiteSpace=wrap;html=1;" parent="WIyWlLk6GJQsqaUBKTNV-1" vertex="1">
          <mxGeometry x="-1770" y="460" width="84" height="40" as="geometry" />
        </mxCell>
        <mxCell id="w_bH7sn8cNDMSygffET5-57" value="Jugador" style="swimlane;fontStyle=1;align=center;verticalAlign=top;childLayout=stackLayout;horizontal=1;startSize=26;horizontalStack=0;resizeParent=1;resizeParentMax=0;resizeLast=0;collapsible=1;marginBottom=0;whiteSpace=wrap;html=1;" parent="WIyWlLk6GJQsqaUBKTNV-1" vertex="1">
          <mxGeometry x="-1940" y="914" width="240" height="190" as="geometry" />
        </mxCell>
        <mxCell id="w_bH7sn8cNDMSygffET5-58" value="-avatar:BufferedImage&lt;br&gt;-fichas:ArrayList&amp;lt;Ficha&amp;gt;&lt;br&gt;-selecionada:Ficha" style="text;strokeColor=none;fillColor=none;align=left;verticalAlign=top;spacingLeft=4;spacingRight=4;overflow=hidden;rotatable=0;points=[[0,0.5],[1,0.5]];portConstraint=eastwest;whiteSpace=wrap;html=1;" parent="w_bH7sn8cNDMSygffET5-57" vertex="1">
          <mxGeometry y="26" width="240" height="54" as="geometry" />
        </mxCell>
        <mxCell id="w_bH7sn8cNDMSygffET5-59" value="" style="line;strokeWidth=1;fillColor=none;align=left;verticalAlign=middle;spacingTop=-1;spacingLeft=3;spacingRight=3;rotatable=0;labelPosition=right;points=[];portConstraint=eastwest;strokeColor=inherit;" parent="w_bH7sn8cNDMSygffET5-57" vertex="1">
          <mxGeometry y="80" width="240" height="8" as="geometry" />
        </mxCell>
        <mxCell id="w_bH7sn8cNDMSygffET5-60" value="+Jugador()&lt;br&gt;+BufferedImage getAvatar()&lt;br&gt;+void setAvatar(BufferedImage avatar)&lt;br&gt;+ArrayList&amp;lt;Ficha&amp;gt; getFichas()&lt;br&gt;+void setFichas(ArrayList fichas)&lt;br&gt;+BufferedImage getPosicion(String lugar)" style="text;strokeColor=none;fillColor=none;align=left;verticalAlign=top;spacingLeft=4;spacingRight=4;overflow=hidden;rotatable=0;points=[[0,0.5],[1,0.5]];portConstraint=eastwest;whiteSpace=wrap;html=1;" parent="w_bH7sn8cNDMSygffET5-57" vertex="1">
          <mxGeometry y="88" width="240" height="102" as="geometry" />
        </mxCell>
        <mxCell id="hqVZ_NZ4zXhZ4NYHyMc--36" style="edgeStyle=orthogonalEdgeStyle;rounded=0;orthogonalLoop=1;jettySize=auto;html=1;endArrow=block;endFill=0;dashed=1;" parent="WIyWlLk6GJQsqaUBKTNV-1" source="hqVZ_NZ4zXhZ4NYHyMc--33" target="hqVZ_NZ4zXhZ4NYHyMc--29" edge="1">
          <mxGeometry relative="1" as="geometry" />
        </mxCell>
        <mxCell id="hqVZ_NZ4zXhZ4NYHyMc--33" value="BroadPresenterImpl" style="swimlane;fontStyle=1;align=center;verticalAlign=top;childLayout=stackLayout;horizontal=1;startSize=26;horizontalStack=0;resizeParent=1;resizeParentMax=0;resizeLast=0;collapsible=1;marginBottom=0;whiteSpace=wrap;html=1;" parent="WIyWlLk6GJQsqaUBKTNV-1" vertex="1">
          <mxGeometry x="-1900" y="616" width="200" height="86" as="geometry" />
        </mxCell>
        <mxCell id="hqVZ_NZ4zXhZ4NYHyMc--35" value="BoardView view" style="text;strokeColor=none;fillColor=none;align=left;verticalAlign=top;spacingLeft=4;spacingRight=4;overflow=hidden;rotatable=0;points=[[0,0.5],[1,0.5]];portConstraint=eastwest;whiteSpace=wrap;html=1;" parent="hqVZ_NZ4zXhZ4NYHyMc--33" vertex="1">
          <mxGeometry y="26" width="200" height="26" as="geometry" />
        </mxCell>
        <mxCell id="hqVZ_NZ4zXhZ4NYHyMc--34" value="" style="line;strokeWidth=1;fillColor=none;align=left;verticalAlign=middle;spacingTop=-1;spacingLeft=3;spacingRight=3;rotatable=0;labelPosition=right;points=[];portConstraint=eastwest;strokeColor=inherit;" parent="hqVZ_NZ4zXhZ4NYHyMc--33" vertex="1">
          <mxGeometry y="52" width="200" height="8" as="geometry" />
        </mxCell>
        <mxCell id="hqVZ_NZ4zXhZ4NYHyMc--37" value="+BoardPresenterImpl(BoardView view)" style="text;strokeColor=none;fillColor=none;align=left;verticalAlign=top;spacingLeft=4;spacingRight=4;overflow=hidden;rotatable=0;points=[[0,0.5],[1,0.5]];portConstraint=eastwest;whiteSpace=wrap;html=1;" parent="hqVZ_NZ4zXhZ4NYHyMc--33" vertex="1">
          <mxGeometry y="60" width="200" height="26" as="geometry" />
        </mxCell>
        <mxCell id="w_bH7sn8cNDMSygffET5-61" value="Ficha" style="swimlane;fontStyle=1;align=center;verticalAlign=top;childLayout=stackLayout;horizontal=1;startSize=26;horizontalStack=0;resizeParent=1;resizeParentMax=0;resizeLast=0;collapsible=1;marginBottom=0;whiteSpace=wrap;html=1;" parent="WIyWlLk6GJQsqaUBKTNV-1" vertex="1">
          <mxGeometry x="-1640" y="936" width="240" height="200" as="geometry" />
        </mxCell>
        <mxCell id="w_bH7sn8cNDMSygffET5-62" value="-imagen:BufferedImage&lt;br&gt;-rec:Rectangle2D.Double" style="text;strokeColor=none;fillColor=none;align=left;verticalAlign=top;spacingLeft=4;spacingRight=4;overflow=hidden;rotatable=0;points=[[0,0.5],[1,0.5]];portConstraint=eastwest;whiteSpace=wrap;html=1;" parent="w_bH7sn8cNDMSygffET5-61" vertex="1">
          <mxGeometry y="26" width="240" height="44" as="geometry" />
        </mxCell>
        <mxCell id="w_bH7sn8cNDMSygffET5-63" value="" style="line;strokeWidth=1;fillColor=none;align=left;verticalAlign=middle;spacingTop=-1;spacingLeft=3;spacingRight=3;rotatable=0;labelPosition=right;points=[];portConstraint=eastwest;strokeColor=inherit;" parent="w_bH7sn8cNDMSygffET5-61" vertex="1">
          <mxGeometry y="70" width="240" height="8" as="geometry" />
        </mxCell>
        <mxCell id="w_bH7sn8cNDMSygffET5-64" value="+Ficha()&lt;br&gt;+Ficha(BufferedImage imagen)&lt;br&gt;+Ficha(BufferedImage imagen, int x, int y)&lt;br&gt;+BufferedImage getImagen()&lt;br&gt;+void setImagen(BufferedImage imagen)&lt;br&gt;+Rectangle2D.Double getRec()&lt;br&gt;+void setRec(Rectangle2D.Double rec)" style="text;strokeColor=none;fillColor=none;align=left;verticalAlign=top;spacingLeft=4;spacingRight=4;overflow=hidden;rotatable=0;points=[[0,0.5],[1,0.5]];portConstraint=eastwest;whiteSpace=wrap;html=1;" parent="w_bH7sn8cNDMSygffET5-61" vertex="1">
          <mxGeometry y="78" width="240" height="122" as="geometry" />
        </mxCell>
        <mxCell id="hqVZ_NZ4zXhZ4NYHyMc--39" value="Domino" style="swimlane;fontStyle=1;align=center;verticalAlign=top;childLayout=stackLayout;horizontal=1;startSize=26;horizontalStack=0;resizeParent=1;resizeParentMax=0;resizeLast=0;collapsible=1;marginBottom=0;whiteSpace=wrap;html=1;" parent="WIyWlLk6GJQsqaUBKTNV-1" vertex="1">
          <mxGeometry x="-1660" y="756" width="390" height="158" as="geometry" />
        </mxCell>
        <mxCell id="hqVZ_NZ4zXhZ4NYHyMc--40" value="&lt;div&gt;&amp;nbsp; &amp;nbsp; static BufferedImage[] caras;&lt;/div&gt;&lt;div&gt;&amp;nbsp; &amp;nbsp; static ArrayList&amp;lt;BufferedImage &amp;gt; fichas;&lt;/div&gt;" style="text;strokeColor=none;fillColor=none;align=left;verticalAlign=top;spacingLeft=4;spacingRight=4;overflow=hidden;rotatable=0;points=[[0,0.5],[1,0.5]];portConstraint=eastwest;whiteSpace=wrap;html=1;" parent="hqVZ_NZ4zXhZ4NYHyMc--39" vertex="1">
          <mxGeometry y="26" width="390" height="44" as="geometry" />
        </mxCell>
        <mxCell id="hqVZ_NZ4zXhZ4NYHyMc--41" value="" style="line;strokeWidth=1;fillColor=none;align=left;verticalAlign=middle;spacingTop=-1;spacingLeft=3;spacingRight=3;rotatable=0;labelPosition=right;points=[];portConstraint=eastwest;strokeColor=inherit;" parent="hqVZ_NZ4zXhZ4NYHyMc--39" vertex="1">
          <mxGeometry y="70" width="390" height="8" as="geometry" />
        </mxCell>
        <mxCell id="hqVZ_NZ4zXhZ4NYHyMc--42" value="+BoardPresenterImpl(BoardView view)&lt;br&gt;void hacerFichas()&lt;br&gt;void hacerCaras()&lt;br&gt;BufferedImage getUnaFicha()" style="text;strokeColor=none;fillColor=none;align=left;verticalAlign=top;spacingLeft=4;spacingRight=4;overflow=hidden;rotatable=0;points=[[0,0.5],[1,0.5]];portConstraint=eastwest;whiteSpace=wrap;html=1;" parent="hqVZ_NZ4zXhZ4NYHyMc--39" vertex="1">
          <mxGeometry y="78" width="390" height="80" as="geometry" />
        </mxCell>
        <mxCell id="hqVZ_NZ4zXhZ4NYHyMc--47" value="«interface»&lt;br&gt;&lt;b&gt;MouseInputListener&lt;/b&gt;" style="html=1;whiteSpace=wrap;" parent="WIyWlLk6GJQsqaUBKTNV-1" vertex="1">
          <mxGeometry x="-1070" y="995" width="130" height="50" as="geometry" />
        </mxCell>
      </root>
    </mxGraphModel>
  </diagram>
</mxfile>
